<svg width="186" height="65" viewBox="0 0 186 65" fill="none" xmlns="http://www.w3.org/2000/svg">
<g clip-path="url(#clip0_1_180)">
<path d="M101.021 30.5438H96.1093L106.896 18.9738L114.665 27.3031H120.689L109.911 15.7424L124.589 0H122.899L115.356 8.07548H110.193L103.136 15.6464H97.6136V8.07548H93.8282V26.9998H97.6136V19.4319H103.136L103.946 20.3017L90.6586 34.5738H83.326V42.4048L67.2617 59.6545H68.9579L88.1484 39.0805V50.081H92.5529V43.0981H101.028C102.693 43.0981 104.289 42.4366 105.466 41.2595C106.643 40.0824 107.305 38.4859 107.305 36.821C107.305 35.156 106.643 33.5595 105.466 32.3824C104.289 31.2053 102.693 30.5438 101.028 30.5438H101.021ZM114.935 26.684L107.534 18.7479L109.701 16.4264L119.265 26.684H114.935ZM92.5467 34.9483H101.021C101.505 34.9681 101.963 35.174 102.298 35.5234C102.634 35.8726 102.821 36.3381 102.821 36.8225C102.821 37.3069 102.634 37.7724 102.298 38.1216C101.963 38.471 101.505 38.6769 101.021 38.6967H92.5467V34.9483ZM101.021 42.479H91.9277V49.4681H88.7612V38.8112L91.9277 35.4281V39.3095H101.021C101.682 39.307 102.315 39.0433 102.782 38.576C103.249 38.1086 103.512 37.4753 103.513 36.8148C103.508 36.157 103.243 35.5284 102.776 35.0647C102.31 34.6011 101.679 34.3401 101.021 34.3386H92.9584L95.9205 31.1721H101.021C102.522 31.1721 103.961 31.7683 105.022 32.8293C106.083 33.8904 106.68 35.3297 106.68 36.8302C106.68 38.3308 106.083 39.7701 105.022 40.8311C103.961 41.8922 102.522 42.4883 101.021 42.4883V42.479Z" fill="white"/>
<path d="M124.951 30.5437H113.303C112.155 30.5478 111.056 31.0055 110.244 31.8174C109.432 32.6293 108.974 33.729 108.97 34.8771V45.7475C108.974 46.8956 109.432 47.9953 110.244 48.8072C111.056 49.6191 112.155 50.0769 113.303 50.0809H124.951C126.1 50.0809 127.202 49.6243 128.015 48.8115C128.827 47.999 129.284 46.8968 129.284 45.7475V34.8802C129.284 34.3109 129.173 33.747 128.955 33.2208C128.737 32.6949 128.418 32.2167 128.016 31.814C127.614 31.4113 127.136 31.0919 126.61 30.8739C126.084 30.6559 125.52 30.5437 124.951 30.5437ZM128.665 45.7506C128.665 46.7359 128.274 47.6805 127.577 48.3769C126.881 49.0737 125.936 49.4649 124.951 49.4649H113.306C112.322 49.4609 111.38 49.0681 110.684 48.3726C109.989 47.6768 109.596 46.7343 109.592 45.7506V34.8802C109.596 33.8962 109.989 32.954 110.684 32.2582C111.38 31.5627 112.322 31.1699 113.306 31.1659H124.951C125.936 31.1659 126.881 31.5571 127.577 32.2539C128.274 32.9503 128.665 33.8949 128.665 34.8802V45.7506Z" fill="white"/>
<path d="M112.752 46.3017H125.502V34.3293H112.752V46.3017ZM113.371 34.9484H124.883V45.6827H113.371V34.9484Z" fill="white"/>
<path d="M131.791 50.0871H136.196V30.5437H131.791V50.0871ZM132.41 31.1628H135.577V49.468H132.41V31.1628Z" fill="white"/>
<path d="M154.578 45.6825H154.25L146.983 32.0202C146.746 31.5748 146.392 31.2024 145.96 30.9423C145.527 30.6822 145.033 30.5445 144.528 30.5437H141.448C140.709 30.5437 140.001 30.8372 139.479 31.3596C138.956 31.8821 138.663 32.5906 138.663 33.3294V50.0871H143.067V34.9483H143.553L150.815 48.6106C151.052 49.056 151.405 49.4284 151.837 49.6884C152.27 49.9484 152.765 50.0861 153.269 50.0871H156.213C156.951 50.0871 157.66 49.7936 158.182 49.2712C158.705 48.7487 158.998 48.0402 158.998 47.3014V30.5437H154.578V45.6825ZM155.197 31.1628H158.379V47.3014C158.379 47.8758 158.151 48.4271 157.745 48.8335C157.338 49.2396 156.787 49.468 156.213 49.468H153.272C152.88 49.4674 152.495 49.3603 152.158 49.1582C151.822 48.9561 151.547 48.666 151.362 48.3197L143.934 34.3292H142.457V49.468H139.282V33.3294C139.282 32.7547 139.51 32.2037 139.916 31.7973C140.323 31.3909 140.874 31.1628 141.448 31.1628H144.528C144.92 31.1637 145.304 31.2711 145.64 31.4732C145.976 31.6757 146.251 31.9651 146.435 32.3111L153.863 46.3016H155.182L155.197 31.1628Z" fill="white"/>
<path d="M161.431 30.5437V34.9483H169.002V50.0871H173.407V34.9483H180.974V30.5437H161.431ZM180.355 34.3292H172.788V49.468H169.621V34.3292H162.05V31.1628H180.355V34.3292Z" fill="white"/>
<path d="M18.4745 8.07544H4.5459V26.9997H18.4745C19.5709 26.9995 20.6446 26.6871 21.5699 26.0989C22.4952 25.5108 23.234 24.6713 23.6996 23.6786C24.1652 22.686 24.3385 21.5813 24.1992 20.4938C24.06 19.4062 23.6138 18.3808 22.913 17.5376C23.6138 16.6943 24.06 15.669 24.1992 14.5814C24.3385 13.4939 24.1652 12.3891 23.6996 11.3965C23.234 10.4039 22.4952 9.56437 21.5699 8.97625C20.6446 8.38809 19.5709 8.07566 18.4745 8.07544ZM8.33137 11.8609H18.0845C18.4794 11.8599 18.8657 11.9764 19.1943 12.1956C19.5228 12.4148 19.7787 12.7268 19.9294 13.0919C20.08 13.4569 20.1187 13.8586 20.0404 14.2457C19.9621 14.6328 19.7704 14.9878 19.4897 15.2657C19.3875 15.368 19.2732 15.4574 19.1492 15.5319C18.832 15.7364 18.4619 15.844 18.0845 15.8414H8.33137V11.8609ZM18.0845 23.2142H8.33137V19.2369H18.0845C18.6123 19.2369 19.1185 19.4465 19.4918 19.8198C19.865 20.193 20.0747 20.6992 20.0747 21.2271C20.0747 21.7549 19.865 22.2612 19.4918 22.6344C19.1185 23.0076 18.6123 23.2173 18.0845 23.2173V23.2142Z" fill="white"/>
<path d="M45.8983 12.9566C45.6436 11.5837 44.9156 10.3436 43.8412 9.45181C42.7669 8.56001 41.4136 8.073 40.0174 8.07545H27.4507V26.9997H31.2485V20.0138H38.0921L41.8064 26.9997H46.0964L42.1716 19.6176C43.4732 19.1175 44.5584 18.1775 45.239 16.9608C45.92 15.7441 46.153 14.3274 45.8983 12.9566ZM40.0174 16.2283H31.2485V11.8609H40.0297C40.3235 11.8499 40.6163 11.8982 40.8908 12.0029C41.1654 12.1077 41.4161 12.2667 41.6278 12.4706C41.8395 12.6745 42.0079 12.919 42.123 13.1894C42.2379 13.4599 42.2973 13.7507 42.2973 14.0446C42.2973 14.3385 42.2379 14.6294 42.123 14.8998C42.0079 15.1703 41.8395 15.4148 41.6278 15.6186C41.4161 15.8225 41.1654 15.9816 40.8908 16.0863C40.6163 16.1911 40.3235 16.2394 40.0297 16.2283H40.0174Z" fill="white"/>
<path d="M67.698 23.2142H52.9461V19.4319H67.698V15.6464H52.9461V11.8609H67.698V8.07544H49.1606V26.9997H67.698V23.2142Z" fill="white"/>
<path d="M74.8078 20.7907H86.9411V26.9997H90.7235V11.3285C90.7235 10.4663 90.3812 9.63931 89.7717 9.02933C89.1623 8.41935 88.3358 8.07624 87.4735 8.07544H74.2661C73.4038 8.07624 72.5774 8.41935 71.9679 9.02933C71.3584 9.63931 71.0161 10.4663 71.0161 11.3285V26.9997H74.8078V20.7907ZM74.8078 11.8609H86.9411V17.0052H74.8078V11.8609Z" fill="white"/>
<path d="M140.69 59.4657H138.659V57.9924C138.659 57.7748 138.702 57.559 138.786 57.3579C138.869 57.157 138.992 56.974 139.146 56.8202C139.3 56.6667 139.482 56.5447 139.684 56.4615C139.885 56.3785 140.101 56.3361 140.318 56.3364H144.277C144.495 56.3361 144.711 56.3785 144.912 56.4615C145.113 56.5447 145.296 56.6667 145.45 56.8202C145.604 56.974 145.726 57.157 145.81 57.3579C145.893 57.559 145.936 57.7748 145.936 57.9924V59.181C145.938 59.4406 145.878 59.6972 145.762 59.9294C145.646 60.1618 145.476 60.3633 145.268 60.5181L141.68 63.2543H146.035V65H138.659V63.4276L143.757 59.5771C143.806 59.5425 143.846 59.4957 143.872 59.4416C143.898 59.3874 143.91 59.3277 143.906 59.2676V58.4381C143.906 58.3418 143.868 58.249 143.802 58.1796C143.734 58.1103 143.643 58.0698 143.547 58.0667H141.071C140.972 58.0667 140.878 58.1057 140.808 58.1756C140.738 58.2453 140.699 58.3397 140.699 58.4381L140.69 59.4657Z" fill="white"/>
<path d="M147.586 63.341V57.9924C147.586 57.7748 147.629 57.559 147.712 57.3579C147.796 57.157 147.918 56.974 148.072 56.8202C148.226 56.6667 148.409 56.5447 148.611 56.4615C148.812 56.3785 149.028 56.3361 149.245 56.3364H153.848C154.065 56.3361 154.281 56.3785 154.482 56.4615C154.684 56.5447 154.867 56.6667 155.021 56.8202C155.175 56.974 155.297 57.157 155.381 57.3579C155.464 57.559 155.507 57.7748 155.507 57.9924V63.341C155.507 63.5589 155.464 63.7746 155.381 63.9758C155.297 64.1773 155.175 64.3599 155.021 64.514C154.867 64.6682 154.684 64.7905 154.483 64.8737C154.281 64.957 154.066 65 153.848 65H149.245C149.027 65 148.812 64.957 148.61 64.8737C148.409 64.7905 148.226 64.6682 148.072 64.514C147.918 64.3599 147.796 64.1773 147.712 63.9758C147.629 63.7746 147.586 63.5589 147.586 63.341ZM149.617 62.8829C149.617 62.9813 149.656 63.076 149.725 63.1456C149.795 63.2153 149.89 63.2543 149.988 63.2543H153.117C153.215 63.2518 153.308 63.2122 153.377 63.1429C153.447 63.0738 153.486 62.9807 153.489 62.8829V58.4505C153.486 58.3527 153.447 58.2595 153.377 58.1905C153.308 58.1215 153.215 58.0815 153.117 58.079H149.988C149.89 58.079 149.795 58.118 149.725 58.1877C149.656 58.2576 149.617 58.352 149.617 58.4505V62.8829Z" fill="white"/>
<path d="M159.088 59.4657H157.058V57.9924C157.058 57.7748 157.101 57.559 157.184 57.3579C157.267 57.157 157.39 56.974 157.544 56.8202C157.698 56.6667 157.881 56.5447 158.082 56.4615C158.283 56.3785 158.499 56.3361 158.717 56.3364H162.675C162.893 56.3361 163.109 56.3785 163.31 56.4615C163.511 56.5447 163.694 56.6667 163.848 56.8202C164.002 56.974 164.125 57.157 164.208 57.3579C164.291 57.559 164.335 57.7748 164.335 57.9924V59.181C164.336 59.4406 164.276 59.6972 164.16 59.9294C164.044 60.1618 163.875 60.3633 163.666 60.5181L160.079 63.2543H164.434V65H157.058V63.4276L162.155 59.5771C162.205 59.5425 162.244 59.4957 162.27 59.4416C162.296 59.3874 162.308 59.3277 162.304 59.2676V58.4381C162.304 58.3418 162.267 58.249 162.2 58.1796C162.133 58.1103 162.041 58.0698 161.945 58.0667H159.469C159.37 58.0667 159.276 58.1057 159.206 58.1756C159.136 58.2453 159.097 58.3397 159.097 58.4381L159.088 59.4657Z" fill="white"/>
<path d="M167.891 59.4657H165.86V57.9924C165.86 57.7748 165.903 57.559 165.987 57.3579C166.07 57.157 166.192 56.974 166.347 56.8202C166.5 56.6667 166.683 56.5447 166.885 56.4615C167.086 56.3785 167.302 56.3361 167.519 56.3364H171.478C171.696 56.3361 171.912 56.3785 172.113 56.4615C172.314 56.5447 172.497 56.6667 172.651 56.8202C172.805 56.974 172.927 57.157 173.011 57.3579C173.094 57.559 173.137 57.7748 173.137 57.9924V59.181C173.139 59.4406 173.079 59.6972 172.963 59.9294C172.847 60.1618 172.677 60.3633 172.469 60.5181L168.878 63.2543H173.236V65H165.86V63.4276L170.958 59.5771C171.007 59.5425 171.047 59.4957 171.073 59.4416C171.099 59.3874 171.11 59.3277 171.107 59.2676V58.4381C171.107 58.3418 171.069 58.249 171.002 58.1796C170.935 58.1103 170.844 58.0698 170.748 58.0667H168.272C168.173 58.0676 168.08 58.1069 168.011 58.1765C167.942 58.2462 167.903 58.34 167.903 58.4381L167.891 59.4657Z" fill="white"/>
</g>
<defs>
<clipPath id="clip0_1_180">
<rect width="185" height="65" fill="white" transform="translate(0.260254)"/>
</clipPath>
</defs>
</svg>
