<svg width="185" height="65" viewBox="0 0 185 65" fill="none" xmlns="http://www.w3.org/2000/svg">
<g clip-path="url(#clip0_1_279)">
<path d="M100.761 30.5438H95.8491L106.636 18.9738L114.405 27.3031H120.428L109.651 15.7424L124.328 0H122.638L115.095 8.07548H109.932L102.875 15.6464H97.3533V8.07548H93.5679V26.9998H97.3533V19.4319H102.875L103.686 20.3017L90.3983 34.5738H83.0657V42.4048L67.0014 59.6545H68.6976L87.8881 39.0805V50.081H92.2926V43.0981H100.767C102.432 43.0981 104.029 42.4366 105.206 41.2595C106.383 40.0824 107.045 38.4859 107.045 36.821C107.045 35.156 106.383 33.5595 105.206 32.3824C104.029 31.2053 102.432 30.5438 100.767 30.5438H100.761ZM114.674 26.684L107.274 18.7479L109.44 16.4264L119.005 26.684H114.674ZM92.2864 34.9483H100.761C101.245 34.9681 101.702 35.174 102.038 35.5234C102.374 35.8726 102.561 36.3381 102.561 36.8225C102.561 37.3069 102.374 37.7724 102.038 38.1216C101.702 38.471 101.245 38.6769 100.761 38.6967H92.2864V34.9483ZM100.761 42.479H91.6674V49.4681H88.501V38.8112L91.6674 35.4281V39.3095H100.761C101.422 39.307 102.055 39.0433 102.521 38.576C102.988 38.1086 103.251 37.4753 103.253 36.8148C103.247 36.157 102.982 35.5284 102.516 35.0647C102.049 34.6011 101.419 34.3401 100.761 34.3386H92.6981L95.6602 31.1721H100.761C102.262 31.1721 103.701 31.7683 104.762 32.8293C105.823 33.8904 106.419 35.3297 106.419 36.8302C106.419 38.3308 105.823 39.7701 104.762 40.8311C103.701 41.8922 102.262 42.4883 100.761 42.4883V42.479Z" fill="white"/>
<path d="M124.69 30.5437H113.043C111.895 30.5478 110.795 31.0055 109.983 31.8174C109.172 32.6293 108.714 33.729 108.71 34.8771V45.7475C108.714 46.8956 109.172 47.9953 109.983 48.8072C110.795 49.6191 111.895 50.0769 113.043 50.0809H124.69C125.84 50.0809 126.942 49.6243 127.755 48.8115C128.567 47.999 129.024 46.8968 129.024 45.7475V34.8802C129.024 34.3109 128.912 33.747 128.695 33.2208C128.477 32.6949 128.158 32.2167 127.756 31.814C127.353 31.4113 126.875 31.0919 126.35 30.8739C125.824 30.6559 125.26 30.5437 124.69 30.5437ZM128.405 45.7506C128.405 46.7359 128.014 47.6805 127.317 48.3769C126.62 49.0737 125.676 49.4649 124.69 49.4649H113.046C112.062 49.4609 111.12 49.0681 110.424 48.3726C109.729 47.6768 109.336 46.7343 109.332 45.7506V34.8802C109.336 33.8962 109.729 32.954 110.424 32.2582C111.12 31.5627 112.062 31.1699 113.046 31.1659H124.69C125.676 31.1659 126.62 31.5571 127.317 32.2539C128.014 32.9503 128.405 33.8949 128.405 34.8802V45.7506Z" fill="white"/>
<path d="M112.492 46.3017H125.241V34.3293H112.492V46.3017ZM113.111 34.9484H124.622V45.6827H113.111V34.9484Z" fill="white"/>
<path d="M131.531 50.0871H135.935V30.5437H131.531V50.0871ZM132.15 31.1628H135.316V49.468H132.15V31.1628Z" fill="white"/>
<path d="M154.318 45.6825H153.99L146.722 32.0202C146.485 31.5748 146.132 31.2024 145.699 30.9423C145.267 30.6822 144.772 30.5445 144.268 30.5437H141.188C140.449 30.5437 139.741 30.8372 139.218 31.3596C138.696 31.8821 138.402 32.5906 138.402 33.3294V50.0871H142.807V34.9483H143.293L150.554 48.6106C150.791 49.056 151.145 49.4284 151.577 49.6884C152.01 49.9484 152.504 50.0861 153.009 50.0871H155.952C156.691 50.0871 157.4 49.7936 157.922 49.2712C158.445 48.7487 158.738 48.0402 158.738 47.3014V30.5437H154.318V45.6825ZM154.937 31.1628H158.119V47.3014C158.119 47.8758 157.891 48.4271 157.485 48.8335C157.078 49.2396 156.527 49.468 155.952 49.468H153.012C152.619 49.4674 152.234 49.3603 151.898 49.1582C151.562 48.9561 151.287 48.666 151.102 48.3197L143.674 34.3292H142.197V49.468H139.021V33.3294C139.021 32.7547 139.25 32.2037 139.656 31.7973C140.062 31.3909 140.613 31.1628 141.188 31.1628H144.268C144.66 31.1637 145.044 31.2711 145.38 31.4732C145.716 31.6757 145.99 31.9651 146.175 32.3111L153.603 46.3016H154.922L154.937 31.1628Z" fill="white"/>
<path d="M161.171 30.5437V34.9483H168.742V50.0871H173.146V34.9483H180.714V30.5437H161.171ZM180.095 34.3292H172.527V49.468H169.361V34.3292H161.79V31.1628H180.095V34.3292Z" fill="white"/>
<path d="M18.2143 8.07544H4.28571V26.9997H18.2143C19.3107 26.9995 20.3844 26.6871 21.3097 26.0989C22.2351 25.5108 22.9738 24.6713 23.4394 23.6786C23.905 22.686 24.0783 21.5813 23.9391 20.4938C23.7998 19.4062 23.3536 18.3808 22.6529 17.5376C23.3536 16.6943 23.7998 15.669 23.9391 14.5814C24.0783 13.4939 23.905 12.3891 23.4394 11.3965C22.9738 10.4039 22.2351 9.56437 21.3097 8.97625C20.3844 8.38809 19.3107 8.07566 18.2143 8.07544ZM8.07119 11.8609H17.8243C18.2192 11.8599 18.6056 11.9764 18.9341 12.1956C19.2626 12.4148 19.5185 12.7268 19.6692 13.0919C19.8198 13.4569 19.8585 13.8586 19.7802 14.2457C19.7019 14.6328 19.5102 14.9878 19.2295 15.2657C19.1273 15.368 19.013 15.4574 18.889 15.5319C18.5718 15.7364 18.2017 15.844 17.8243 15.8414H8.07119V11.8609ZM17.8243 23.2142H8.07119V19.2369H17.8243C18.3521 19.2369 18.8583 19.4465 19.2316 19.8198C19.6049 20.193 19.8145 20.6992 19.8145 21.2271C19.8145 21.7549 19.6049 22.2612 19.2316 22.6344C18.8583 23.0076 18.3521 23.2173 17.8243 23.2173V23.2142Z" fill="white"/>
<path d="M45.6381 12.9566C45.3834 11.5837 44.6554 10.3436 43.581 9.45181C42.5066 8.56001 41.1534 8.073 39.7571 8.07545H27.1905V26.9997H30.9883V20.0138H37.8319L41.5462 26.9997H45.8362L41.9114 19.6176C43.213 19.1175 44.2982 18.1775 44.9788 16.9608C45.6598 15.7441 45.8928 14.3274 45.6381 12.9566ZM39.7571 16.2283H30.9883V11.8609H39.7695C40.0633 11.8499 40.3561 11.8982 40.6306 12.0029C40.9052 12.1077 41.1559 12.2667 41.3676 12.4706C41.5793 12.6745 41.7477 12.919 41.8628 13.1894C41.9777 13.4599 42.0371 13.7507 42.0371 14.0446C42.0371 14.3385 41.9777 14.6294 41.8628 14.8998C41.7477 15.1703 41.5793 15.4148 41.3676 15.6186C41.1559 15.8225 40.9052 15.9816 40.6306 16.0863C40.3561 16.1911 40.0633 16.2394 39.7695 16.2283H39.7571Z" fill="white"/>
<path d="M67.4379 23.2142H52.686V19.4319H67.4379V15.6464H52.686V11.8609H67.4379V8.07544H48.9005V26.9997H67.4379V23.2142Z" fill="white"/>
<path d="M74.5476 20.7907H86.681V26.9997H90.4633V11.3285C90.4633 10.4663 90.121 9.63931 89.5115 9.02933C88.9021 8.41935 88.0757 8.07624 87.2133 8.07544H74.006C73.1436 8.07624 72.3172 8.41935 71.7077 9.02933C71.0983 9.63931 70.756 10.4663 70.756 11.3285V26.9997H74.5476V20.7907ZM74.5476 11.8609H86.681V17.0052H74.5476V11.8609Z" fill="white"/>
<path d="M140.43 59.4657H138.399V57.9924C138.399 57.7748 138.442 57.559 138.526 57.3579C138.609 57.157 138.731 56.974 138.886 56.8202C139.039 56.6667 139.222 56.5447 139.424 56.4615C139.625 56.3785 139.841 56.3361 140.058 56.3364H144.017C144.235 56.3361 144.45 56.3785 144.652 56.4615C144.853 56.5447 145.036 56.6667 145.19 56.8202C145.344 56.974 145.466 57.157 145.55 57.3579C145.633 57.559 145.676 57.7748 145.676 57.9924V59.181C145.678 59.4406 145.618 59.6972 145.502 59.9294C145.386 60.1618 145.216 60.3633 145.008 60.5181L141.42 63.2543H145.775V65H138.399V63.4276L143.497 59.5771C143.546 59.5425 143.586 59.4957 143.612 59.4416C143.638 59.3874 143.649 59.3277 143.646 59.2676V58.4381C143.646 58.3418 143.608 58.249 143.541 58.1796C143.474 58.1103 143.383 58.0698 143.287 58.0667H140.81C140.712 58.0667 140.618 58.1057 140.548 58.1756C140.478 58.2453 140.439 58.3397 140.439 58.4381L140.43 59.4657Z" fill="white"/>
<path d="M147.326 63.341V57.9924C147.326 57.7748 147.369 57.559 147.452 57.3579C147.536 57.157 147.658 56.974 147.812 56.8202C147.966 56.6667 148.149 56.5447 148.35 56.4615C148.552 56.3785 148.767 56.3361 148.985 56.3364H153.588C153.805 56.3361 154.021 56.3785 154.222 56.4615C154.424 56.5447 154.607 56.6667 154.76 56.8202C154.915 56.974 155.037 57.157 155.12 57.3579C155.204 57.559 155.247 57.7748 155.247 57.9924V63.341C155.247 63.5589 155.204 63.7746 155.12 63.9758C155.037 64.1773 154.915 64.3599 154.761 64.514C154.607 64.6682 154.424 64.7905 154.222 64.8737C154.021 64.957 153.806 65 153.588 65H148.985C148.767 65 148.551 64.957 148.35 64.8737C148.149 64.7905 147.966 64.6682 147.812 64.514C147.658 64.3599 147.536 64.1773 147.452 63.9758C147.369 63.7746 147.326 63.5589 147.326 63.341ZM149.356 62.8829C149.356 62.9813 149.395 63.076 149.465 63.1456C149.535 63.2153 149.629 63.2543 149.728 63.2543H152.857C152.955 63.2518 153.048 63.2122 153.117 63.1429C153.186 63.0738 153.226 62.9807 153.229 62.8829V58.4505C153.226 58.3527 153.186 58.2595 153.117 58.1905C153.048 58.1215 152.955 58.0815 152.857 58.079H149.728C149.629 58.079 149.535 58.118 149.465 58.1877C149.395 58.2576 149.356 58.352 149.356 58.4505V62.8829Z" fill="white"/>
<path d="M158.828 59.4657H156.797V57.9924C156.797 57.7748 156.84 57.559 156.924 57.3579C157.007 57.157 157.13 56.974 157.283 56.8202C157.437 56.6667 157.62 56.5447 157.822 56.4615C158.023 56.3785 158.239 56.3361 158.456 56.3364H162.415C162.633 56.3361 162.849 56.3785 163.05 56.4615C163.251 56.5447 163.434 56.6667 163.588 56.8202C163.742 56.974 163.864 57.157 163.948 57.3579C164.031 57.559 164.074 57.7748 164.074 57.9924V59.181C164.076 59.4406 164.016 59.6972 163.9 59.9294C163.784 60.1618 163.614 60.3633 163.406 60.5181L159.818 63.2543H164.173V65H156.797V63.4276L161.895 59.5771C161.944 59.5425 161.984 59.4957 162.01 59.4416C162.036 59.3874 162.048 59.3277 162.044 59.2676V58.4381C162.044 58.3418 162.006 58.249 161.94 58.1796C161.872 58.1103 161.781 58.0698 161.685 58.0667H159.209C159.11 58.0667 159.015 58.1057 158.946 58.1756C158.876 58.2453 158.837 58.3397 158.837 58.4381L158.828 59.4657Z" fill="white"/>
<path d="M167.631 59.4657H165.6V57.9924C165.6 57.7748 165.643 57.559 165.727 57.3579C165.81 57.157 165.932 56.974 166.087 56.8202C166.24 56.6667 166.423 56.5447 166.625 56.4615C166.826 56.3785 167.042 56.3361 167.259 56.3364H171.218C171.436 56.3361 171.651 56.3785 171.853 56.4615C172.054 56.5447 172.237 56.6667 172.391 56.8202C172.545 56.974 172.667 57.157 172.751 57.3579C172.834 57.559 172.877 57.7748 172.877 57.9924V59.181C172.879 59.4406 172.819 59.6972 172.703 59.9294C172.587 60.1618 172.417 60.3633 172.209 60.5181L168.618 63.2543H172.976V65H165.6V63.4276L170.698 59.5771C170.747 59.5425 170.787 59.4957 170.813 59.4416C170.839 59.3874 170.85 59.3277 170.847 59.2676V58.4381C170.847 58.3418 170.809 58.249 170.742 58.1796C170.675 58.1103 170.584 58.0698 170.488 58.0667H168.011C167.913 58.0676 167.82 58.1069 167.751 58.1765C167.682 58.2462 167.643 58.34 167.643 58.4381L167.631 59.4657Z" fill="white"/>
</g>
<defs>
<clipPath id="clip0_1_279">
<rect width="185" height="65" fill="white"/>
</clipPath>
</defs>
</svg>
